<svg id="Layer_1" data-name="Layer 1" xmlns="http://www.w3.org/2000/svg" viewBox="0 0 90.84 27.96"><defs><style>.cls-1{fill:#fff;}</style></defs><title>UCBerkeley_wordmark_white</title><path class="cls-1" d="M7.06,10c-.93,0-1.2.13-1.2.86v5.93a7.27,7.27,0,0,0,.4,2.48,3.91,3.91,0,0,0,2.49.63,4.24,4.24,0,0,0,4.37-4.6c0-3-2.45-5.3-6.06-5.3M8.15.79c-2.19,0-2.29.3-2.29,1V8.94c0,.53.43.47,1.23.47a26.47,26.47,0,0,1,3.41.2,4.07,4.07,0,0,0,2.05-4C12.55,4,11.16.79,8.15.79m.43,19.75c-1.39,0-2.78-.33-4.24-.33s-2.12.13-3.18.13c-.33,0-.56,0-.56-.37s.19-.39.92-.39c1.49,0,1.56-.07,1.56-.57V3.78C3.08,1.16,2.55.86,1.62.86.13.86,0,.83,0,.43,0,.2.1.17.66.17c1,0,2.06,0,3.22,0C4.57.2,6.16,0,9.14,0c4.31,0,6.16,2.22,6.16,4.57a4.9,4.9,0,0,1-2.48,4.24,11,11,0,0,0-1.36.9c0,.06.63.23,1.29.56,1.56.79,3.51,1.92,3.51,4.8,0,3.71-3.08,5.47-7.68,5.47"/><path class="cls-1" d="M22.39,8.85c-2.19,0-2.88,3.29-2.88,3.69,0,.15,0,.18.34.18A36,36,0,0,0,25.07,12c.31-.05.34-.11.34-.28,0-.72-1.7-2.86-3-2.86m4.43,3.46a44.7,44.7,0,0,1-6.91,1c-.46,0-.55.17-.55.84,0,4,3.09,5,5.28,5a7.76,7.76,0,0,0,3.11-.69c.14,0,.23.17.23.23a8.2,8.2,0,0,1-4.79,2c-2.36,0-5.87-1.16-5.87-6,0-4.06,2.73-6.48,5.36-6.48a6.43,6.43,0,0,1,4.38,2.16,4.43,4.43,0,0,1,1,1.5c0,.11-.41.23-1.19.4"/><path class="cls-1" d="M37.37,11.53c-.4,0-.75-1.18-2.19-1.18-1.67,0-2.3.69-2.3,1.9v5.94c0,1.41.08,1.41,2.21,1.41.75,0,.78.09.78.35s0,.29-.78.29c-.4,0-2.33-.15-3.25-.15s-2,.15-2.36.15c-.67,0-.73,0-.73-.29s0-.35.73-.35c1.18,0,1.26,0,1.26-.43v-7.9c0-1.95.06-2-1.55-2-.52,0-.52,0-.52-.29s0-.43.46-.43c1,0,1.53.05,2.1.05s1-.14,1.47-.14c.12,0,.23.09.23.32s0,.78,0,.86c0,.26,0,.46.14.46.43,0,1.79-1.5,3.14-1.5.52,0,1.84.64,1.84,1.39,0,.29-.46,1.55-.63,1.55"/><path class="cls-1" d="M51,20.35c-.35,0-.72,0-1,0l-1.61,0c-.52,0-.78-.72-2-2.1s-2.42-3.2-2.6-3.2a5.84,5.84,0,0,0-1,.6c-.47.29-.87.49-.87.75v1.82c0,1.35-.06,1.35,1.73,1.35.66,0,.78.15.78.38s-.15.29-.78.29c-.43,0-1.76-.06-2.68-.06s-2,.06-2.45.06c-.66,0-.83,0-.83-.29s.14-.38.83-.38c1,0,1.24,0,1.24-.43,0-.84.09-9.36.09-15.44,0-2.05-.23-2.31-1-2.31-1.18,0-1.3-.08-1.3-.29s.06-.4.38-.4a17.76,17.76,0,0,0,4-.63c.14,0,.2.08.2.26,0,.37-.06,1.58-.06,2.5,0,4.38-.17,7.61-.17,12.31,0,.11,0,.2.12.2.72,0,3.71-2.65,4.64-3.52,1.12-1.06,1.38-1.55,1.38-2.16s-.09-.52-1.36-.52c-.43,0-.57-.05-.57-.31s.14-.29.52-.29.83.08,1.18.08,2-.08,2.39-.08.35,0,.35.11A8.81,8.81,0,0,1,48.72,11c-1.44,1.41-3.22,2.67-3.22,2.88s.51.8,2.53,3.22c1,1.18,1.9,2.6,2.88,2.6.69,0,.92.14.92.37s-.2.26-.83.26"/><path class="cls-1" d="M56,8.85c-2.19,0-2.88,3.29-2.88,3.69,0,.15,0,.18.35.18A35.86,35.86,0,0,0,58.66,12c.32-.05.35-.11.35-.28,0-.72-1.7-2.86-3-2.86m4.44,3.46a44.91,44.91,0,0,1-6.91,1c-.47,0-.55.17-.55.84,0,4,3.08,5,5.27,5a7.7,7.7,0,0,0,3.11-.69.26.26,0,0,1,.23.23,8.19,8.19,0,0,1-4.78,2c-2.36,0-5.88-1.16-5.88-6,0-4.06,2.74-6.48,5.36-6.48a6.41,6.41,0,0,1,4.38,2.16,4.43,4.43,0,0,1,1,1.5c0,.11-.4.23-1.18.4"/><path class="cls-1" d="M66.77,20.24c-.44,0-1.07-.06-1.59-.06-1,0-2.51.06-2.91.06-.66,0-.72-.06-.72-.29s0-.38.72-.38c1.18,0,1.67,0,1.67-.49V3.21c0-1.82-.17-1.82-1.47-1.82-.52,0-.81-.06-.81-.37s.24-.32.73-.35A15.16,15.16,0,0,0,65.9,0c.14,0,.29.14.29.46S66,1.88,66,2.75c0,11-.14,13.25-.14,14.09,0,2.39.2,2.7.72,2.7,1.44,0,1.38.18,1.38.41s-.2.29-1.23.29"/><path class="cls-1" d="M72.6,8.85c-2.19,0-2.88,3.29-2.88,3.69,0,.15,0,.18.35.18A35.86,35.86,0,0,0,75.28,12c.32-.05.35-.11.35-.28,0-.72-1.7-2.86-3-2.86M77,12.31a44.9,44.9,0,0,1-6.92,1c-.46,0-.54.17-.54.84,0,4,3.08,5,5.27,5A7.7,7.7,0,0,0,78,18.51a.26.26,0,0,1,.23.23,8.19,8.19,0,0,1-4.78,2c-2.36,0-5.88-1.16-5.88-6,0-4.06,2.74-6.48,5.36-6.48a6.41,6.41,0,0,1,4.38,2.16,4.43,4.43,0,0,1,1,1.5c0,.11-.4.23-1.18.4"/><path class="cls-1" d="M90.09,9.23c-.63,0-1.9,3.46-4.18,9-1.81,4.41-3.11,6.74-4,8.64-.32.64-.66.66-1.3.75a13.59,13.59,0,0,1-1.7.35c-.49,0-.77-.15-.77-.29a7,7,0,0,0,2.33-1.59c1-1.29,3.51-4.69,3.51-5.56,0-.31-2.3-5.64-3.89-9.39-.72-1.73-.92-1.87-1.44-1.87S78,9.23,78,9s.09-.4.6-.4c.81,0,1,0,1.7,0s1.82-.08,2.74-.08c.61,0,.72.11.72.43s-.11.29-.72.29-.86.17-.86.83c0,.84.75,1.85,2.47,6.28.24.61.58,1.1.7,1.1s.37-.4.83-1.76c.69-2.07,1.73-5.07,1.73-5.47,0-.87,0-1-1-1s-1,0-1-.29.09-.37.61-.37c.78,0,1.29.05,2.07.05.43,0,1.21-.11,1.62-.11s.6,0,.6.35-.4.4-.75.4"/><path class="cls-1" d="M3.92,27.54A1.28,1.28,0,0,1,2.5,26.13V23.62h.67v2.55c0,.48.2.8.75.8s.75-.32.75-.8V23.62h.67v2.51a1.28,1.28,0,0,1-1.42,1.41"/><polygon class="cls-1" points="8.59 27.47 6.96 24.89 6.95 24.89 6.95 27.47 6.28 27.47 6.28 23.68 6.93 23.62 8.49 26.15 8.51 26.15 8.51 23.62 9.18 23.62 9.18 27.47 8.59 27.47"/><rect class="cls-1" x="10.14" y="23.62" width="0.67" height="3.85"/><path class="cls-1" d="M13.53,27.47h-.74l-1.33-3.85h.71l.74,2.15s.07.22.26.88h0c.19-.66.26-.87.26-.87l.74-2.16h.66Z"/><polygon class="cls-1" points="17.85 27.47 15.51 27.47 15.51 23.62 17.8 23.62 17.8 24.18 16.18 24.18 16.18 25.25 17.63 25.25 17.63 25.81 16.18 25.81 16.18 26.91 17.9 26.91 17.85 27.47"/><path class="cls-1" d="M20,24.19h-.55v1.18H20a.54.54,0,0,0,.59-.6c0-.36-.15-.58-.6-.58m.8,3.28-.54-1.08c-.11-.23-.25-.46-.49-.46h-.32v1.54h-.67V23.62H20c.85,0,1.28.47,1.28,1.14a1.06,1.06,0,0,1-.73,1h0a.65.65,0,0,1,.24.26l.73,1.39Z"/><path class="cls-1" d="M23.27,27.54A2.24,2.24,0,0,1,22,27.11l.28-.5a1.91,1.91,0,0,0,1,.36c.45,0,.67-.25.67-.54,0-.72-1.71-.49-1.71-1.78a1.13,1.13,0,0,1,1.25-1.09,2.14,2.14,0,0,1,1.12.34l-.24.49a1.84,1.84,0,0,0-.88-.26c-.37,0-.56.21-.56.49,0,.87,1.7.48,1.7,1.79a1.24,1.24,0,0,1-1.35,1.13"/><rect class="cls-1" x="25.42" y="23.62" width="0.67" height="3.85"/><polygon class="cls-1" points="29.52 24.19 28.55 24.19 28.55 27.47 27.88 27.47 27.88 24.2 26.86 24.2 26.86 23.62 29.57 23.62 29.52 24.19"/><path class="cls-1" d="M31.89,25.83v1.64h-.67V25.83L30,23.62h.75l.51,1.1s.08.14.28.57h0c.19-.43.26-.57.26-.57l.54-1.1h.74Z"/><path class="cls-1" d="M37.06,24.13c-.66,0-1,.57-1,1.41s.32,1.43,1,1.43,1-.59,1-1.43-.32-1.41-1-1.41m0,3.41c-1.16,0-1.67-.89-1.67-2s.52-2,1.67-2,1.68.83,1.68,2-.51,2-1.68,2"/><polygon class="cls-1" points="40.27 24.18 40.27 25.25 41.69 25.25 41.69 25.81 40.27 25.81 40.27 27.47 39.6 27.47 39.6 23.62 41.85 23.62 41.85 24.18 40.27 24.18"/><path class="cls-1" d="M46.07,27.54c-1.18,0-1.7-.81-1.7-2s.57-2,1.72-2a2,2,0,0,1,1.29.49L47,24.5a1.41,1.41,0,0,0-.94-.37c-.68,0-1,.51-1,1.41S45.39,27,46.1,27a1.52,1.52,0,0,0,1-.45l.35.44a2.09,2.09,0,0,1-1.4.58"/><path class="cls-1" d="M49.84,25.22s-.05-.13-.31-.92h0c-.26.79-.31.92-.31.92l-.29.85h1.22Zm.79,2.25-.33-.92H48.75l-.32.92h-.62l1.35-3.79.78-.06,1.37,3.85Z"/><polygon class="cls-1" points="54.13 27.47 51.86 27.47 51.86 23.62 52.52 23.62 52.52 26.91 54.18 26.91 54.13 27.47"/><rect class="cls-1" x="54.84" y="23.62" width="0.67" height="3.85"/><polygon class="cls-1" points="57.05 24.18 57.05 25.25 58.46 25.25 58.46 25.81 57.05 25.81 57.05 27.47 56.38 27.47 56.38 23.62 58.63 23.62 58.63 24.18 57.05 24.18"/><path class="cls-1" d="M60.73,24.13c-.66,0-1,.57-1,1.41s.33,1.43,1,1.43,1-.59,1-1.43-.32-1.41-1-1.41m0,3.41c-1.16,0-1.67-.89-1.67-2s.51-2,1.67-2,1.68.83,1.68,2-.51,2-1.68,2"/><path class="cls-1" d="M64.21,24.19h-.55v1.18h.56a.54.54,0,0,0,.59-.6c0-.36-.15-.58-.6-.58m.8,3.28-.54-1.08c-.11-.23-.25-.46-.49-.46h-.32v1.54H63V23.62h1.23c.85,0,1.27.47,1.27,1.14a1,1,0,0,1-.72,1h0a.65.65,0,0,1,.24.26l.73,1.39Z"/><polygon class="cls-1" points="68.57 27.47 66.95 24.89 66.93 24.89 66.93 27.47 66.27 27.47 66.27 23.68 66.91 23.62 68.48 26.15 68.5 26.15 68.5 23.62 69.17 23.62 69.17 27.47 68.57 27.47"/><rect class="cls-1" x="70.01" y="23.62" width="0.67" height="3.85"/><path class="cls-1" d="M73.25,25.22s0-.13-.31-.92h0l-.3.92-.3.85h1.22ZM74,27.47l-.32-.92H72.17l-.32.92h-.63l1.36-3.79.78-.06,1.37,3.85Z"/></svg>